<?xml version="1.0" encoding="UTF-8"?>
<svg id="Camada_2" data-name="Camada 2" xmlns="http://www.w3.org/2000/svg" viewBox="0 0 763.77 150.3">
  <defs>
    <style>
      .cls-1 {
        fill: #1a1a1a;
      }

      .cls-1, .cls-2 {
        stroke-width: 0px;
      }

      .cls-2 {
        fill: #42559b;
      }
    </style>
  </defs>
  <g id="Camada_1-2" data-name="Camada 1">
    <g>
      <path class="cls-1" d="m39.65,0v150.25H0V0h39.65Z"/>
      <path class="cls-1" d="m150.39,150.25h-36.52v-56.93c0-5.6-2.31-8.4-6.93-8.4s-6.84,2.8-6.84,8.4v56.93h-36.52v-56.25c0-12.69,4.2-23.39,12.6-32.08s18.68-13.04,30.86-13.04c13.93,0,25.1,5.05,33.5,15.14,6.58,7.88,9.86,18.85,9.86,32.91v53.32Z"/>
      <path class="cls-1" d="m224.51,58.51v37.78h-16.31v53.97h-36.52V51.66c0-9.19,1.6-17.03,4.79-23.52,4.04-8.29,10.17-15.05,18.41-20.29,8.24-5.24,16.81-7.86,25.73-7.86h33.89v38.28c-.85-.06-35,0-36.52.33-2.55.55-3.51.68-6.01,3.7-2.51,3.02-3.76,7.33-3.76,12.92v3.28h16.31Z"/>
      <path class="cls-1" d="m299.85,48.84c13.8,0,25.63,4.97,35.5,14.89,9.86,9.93,14.79,21.83,14.79,35.69s-5,26.04-14.99,35.94c-9.99,9.9-22.05,14.84-36.18,14.84s-26.21-4.96-36.23-14.89c-10.03-9.93-15.04-21.89-15.04-35.89s5.01-26.25,15.04-35.99c10.03-9.73,22.4-14.6,37.11-14.6Zm-.98,36.03c-3.91,0-7.23,1.42-9.96,4.25s-4.1,6.3-4.1,10.4,1.38,7.49,4.15,10.35c2.77,2.87,6.07,4.3,9.91,4.3s7.24-1.43,10.01-4.3c2.77-2.86,4.15-6.31,4.15-10.35s-1.37-7.57-4.1-10.4-6.09-4.25-10.06-4.25Z"/>
      <path class="cls-1" d="m496.68,50.01v36.88c-2.43.33-4.85.03-6.93.03-6.64,0-9.96,5.08-9.96,15.23v48.14h-36.52v-55.18c0-14.06,3.84-25.28,11.52-33.64,7.68-8.36,17.94-12.55,30.76-12.55,2.86,0,6.58.36,11.13,1.07Z"/>
      <path class="cls-1" d="m615.04,105.53h-55.37c-.85-2.8-1.27-5.37-1.27-7.71,0-3.25.59-6.45,1.76-9.57h18.55c-1.3-7.23-5.37-10.84-12.21-10.84-4.56,0-8.27,1.94-11.13,5.81-2.87,3.87-4.3,8.84-4.3,14.89s1.38,11.43,4.15,15.33c2.77,3.91,6.4,5.86,10.89,5.86,3.65,0,7.16-1.82,10.55-5.47l20.8,25c-9.7,7.62-20.48,11.43-32.32,11.43-14.45,0-26.6-4.85-36.43-14.55-9.83-9.7-14.75-21.71-14.75-36.04s4.96-26.3,14.89-36.13c9.93-9.83,22.12-14.75,36.57-14.75s25.99,4.8,35.6,14.4c9.6,9.6,14.4,21.44,14.4,35.5,0,1.43-.13,3.71-.39,6.84Z"/>
      <path class="cls-1" d="m763.77,150.25h-36.52v-54.49c0-4.04-.42-6.84-1.27-8.4-.85-1.56-2.38-2.34-4.59-2.34-4.1,0-6.15,3.61-6.15,10.84v54.39h-36.52v-54.49c0-4.04-.44-6.84-1.32-8.4s-2.43-2.34-4.64-2.34c-4.04,0-6.05,3.61-6.05,10.84v54.39h-36.52v-61.91c0-10.94,3.68-20.23,11.04-27.88,7.36-7.65,16.28-11.47,26.76-11.47s20.51,4.56,29.1,13.67c9.57-9.11,19.14-13.67,28.71-13.67,12.17,0,21.94,4.43,29.3,13.28,5.79,6.9,8.69,16.96,8.69,30.18v57.81Z"/>
      <rect class="cls-2" x="253.79" width="89.82" height="38.28"/>
      <rect class="cls-1" x="443.26" width="320.51" height="38.28"/>
      <rect class="cls-1" x="343.61" width="99.65" height="38.28"/>
      <rect class="cls-1" x="373.34" y="38.28" width="39.65" height="111.97"/>
    </g>
  </g>
</svg>